<?xml version="1.0" encoding="UTF-8" standalone="no"?>
<!DOCTYPE svg PUBLIC "-//W3C//DTD SVG 1.1//EN" "http://www.w3.org/Graphics/SVG/1.1/DTD/svg11.dtd">
<svg width="100%" height="100%" viewBox="0 0 18 28" version="1.1" xmlns="http://www.w3.org/2000/svg" xmlns:xlink="http://www.w3.org/1999/xlink" xml:space="preserve" xmlns:serif="http://www.serif.com/" style="fill-rule:evenodd;clip-rule:evenodd;stroke-linejoin:round;stroke-miterlimit:2;">
    <g transform="matrix(1,0,0,1,-4.911,0)">
        <path d="M10.398,22.811L15.016,22.811L15.016,27.775L10.398,27.775L10.398,22.811ZM21.058,1.594C19.854,0.532 17.612,0 14.33,0C10.619,0 8.125,0.514 6.848,1.543C5.571,2.57 4.932,4.57 4.932,7.543L4.911,8.551L9.488,8.551L9.468,7.502C9.468,6.078 9.771,5.125 10.375,4.648C10.979,4.171 12.189,3.931 14.007,3.931C15.943,3.931 17.191,4.159 17.747,4.607C18.306,5.058 18.584,6.064 18.584,7.624C18.584,9.507 17.839,10.757 16.347,11.376L14.55,12.142C12.668,12.923 11.506,13.68 11.061,14.412C10.619,15.144 10.396,16.654 10.396,18.941L15.076,18.941L15.076,18.295C15.076,16.885 16.063,15.762 18.041,14.93C20.071,14.069 21.384,13.184 21.976,12.279C22.568,11.371 22.864,9.781 22.864,7.508C22.863,4.625 22.261,2.655 21.058,1.594Z" style="fill:rgb(239,231,187);fill-rule:nonzero;"/>
    </g>
</svg>
