<?xml version="1.0" encoding="UTF-8" standalone="no"?>
<!DOCTYPE svg PUBLIC "-//W3C//DTD SVG 1.1//EN" "http://www.w3.org/Graphics/SVG/1.1/DTD/svg11.dtd">
<svg width="100%" height="100%" viewBox="0 0 363 490" version="1.1" xmlns="http://www.w3.org/2000/svg" xmlns:xlink="http://www.w3.org/1999/xlink" xml:space="preserve" xmlns:serif="http://www.serif.com/" style="fill-rule:evenodd;clip-rule:evenodd;stroke-linecap:round;stroke-linejoin:round;stroke-miterlimit:1.5;">
    <g transform="matrix(1,0,0,1,-282.034,-67.4164)">
        <g transform="matrix(1,0,0,1,228.11,3.16119)">
            <g transform="matrix(1,0,0,1,62.3776,-1.86448)">
                <g transform="matrix(1,0,0,1,-359.023,19.8404)">
                    <path d="M385.192,154.707L351.59,370.297L384.191,489.552L478.376,534.648L641.014,517.443L695.396,431.687L711.74,293.311L680.926,139.512L569.872,47.33L477.268,115.343L385.192,154.707Z" style="fill:rgb(75,88,98);stroke:black;stroke-width:1px;"/>
                </g>
                <g transform="matrix(1,0,0,1,-359.023,19.8404)">
                    <path d="M385.496,156.829L414.11,184.607L393.562,349.89L351.07,369.7L385.496,156.829Z" style="fill:rgb(121,132,140);stroke:black;stroke-width:1px;"/>
                </g>
                <g transform="matrix(1,0,0,1,-359.023,19.8404)">
                    <path d="M385.311,489.637L431.468,484.025L394.604,350.635L352.761,370.488L385.311,489.637Z" style="fill:rgb(116,124,130);stroke:black;stroke-width:1px;"/>
                </g>
                <g transform="matrix(1,0,0,1,-359.023,19.8404)">
                    <path d="M385.311,489.637L479.383,535.546L517.471,530.895L432.808,483.778L385.311,489.637Z" style="fill:rgb(65,74,79);stroke:black;stroke-width:1px;"/>
                </g>
                <g transform="matrix(1,0,0,1,-359.023,19.8404)">
                    <path d="M517.471,530.895L641.681,516.958L503.114,476.21L431.85,483.818L517.471,530.895Z" style="fill:rgb(80,92,99);stroke:black;stroke-width:1px;"/>
                </g>
                <g transform="matrix(1,0,0,1,-359.023,19.8404)">
                    <path d="M641.681,516.958L695.005,433.061L505.305,383.756L501.336,474.056L641.681,516.958Z" style="fill:rgb(97,109,119);stroke:black;stroke-width:1px;"/>
                </g>
                <g transform="matrix(1,0,0,1,-359.023,19.8404)">
                    <path d="M695.005,433.061L712.97,291.549L628.939,247.74L695.005,433.061Z" style="fill:rgb(80,92,99);stroke:black;stroke-width:1px;"/>
                </g>
                <g transform="matrix(1,0,0,1,-359.023,19.8404)">
                    <path d="M712.97,291.549L681.725,139.521L629.167,246.473L712.97,291.549Z" style="fill:rgb(97,109,119);stroke:black;stroke-width:1px;"/>
                </g>
                <g transform="matrix(1,0,0,1,-359.023,19.8404)">
                    <path d="M569.437,46.779L478.266,114.779L514.513,125.44L569.7,88.463L569.437,46.779Z" style="fill:rgb(116,128,137);stroke:black;stroke-width:1px;"/>
                </g>
                <g transform="matrix(1,0,0,1,-359.023,19.8404)">
                    <path d="M478.266,114.779L384.736,154.579L415.556,185.797L516.006,126.347L478.266,114.779Z" style="fill:rgb(94,106,117);stroke:black;stroke-width:1px;"/>
                </g>
                <path d="M211.737,109.183L156.983,146.188L210.67,157.377L211.737,109.183Z" style="fill:rgb(147,161,173);stroke:black;stroke-width:1px;"/>
                <path d="M210.67,157.377L100.266,249.405L57.671,205.302L157.712,147.277L210.67,157.377Z" style="fill:rgb(121,135,149);stroke:black;stroke-width:1px;"/>
                <path d="M269.274,264.648L97.797,338.939L100.225,249.433L210.372,159.662L269.274,264.648Z" style="fill:rgb(97,109,119);stroke:black;stroke-width:1px;"/>
                <path d="M147.603,402.066L337.014,451.909L268.491,264.883L98.063,340.304L147.603,402.066Z" style="fill:rgb(121,135,149);stroke:black;stroke-width:1px;"/>
                <path d="M36.216,370.698L73.067,504.382L142.632,494.429L146.667,402.748L97.377,338.604L36.216,370.698Z" style="fill:rgb(142,153,163);stroke:black;stroke-width:1px;"/>
                <g transform="matrix(1,0,0,1,-359.023,19.8404)">
                    <path d="M415.556,185.797L458.576,231.108L455.671,320.031L394.407,349.762L415.556,185.797Z" style="fill:rgb(147,161,173);stroke:black;stroke-width:1px;"/>
                </g>
                <g transform="matrix(1,0,0,1,-359.023,19.8404)">
                    <path d="M570.92,46.808L571.177,139.261L628.407,245.045L681.581,141.023L570.92,46.808Z" style="fill:rgb(142,153,163);stroke:black;stroke-width:1px;"/>
                </g>
            </g>
        </g>
    </g>
</svg>
