<?xml version="1.0" encoding="UTF-8" standalone="no"?>
<!DOCTYPE svg PUBLIC "-//W3C//DTD SVG 1.1//EN" "http://www.w3.org/Graphics/SVG/1.1/DTD/svg11.dtd">
<svg width="100%" height="100%" viewBox="0 0 271 261" version="1.1" xmlns="http://www.w3.org/2000/svg" xmlns:xlink="http://www.w3.org/1999/xlink" xml:space="preserve" xmlns:serif="http://www.serif.com/" style="fill-rule:evenodd;clip-rule:evenodd;stroke-linejoin:round;stroke-miterlimit:2;">
    <g transform="matrix(1,0,0,1,-113.338,-90.741)">
        <rect x="113.338" y="134.202" width="188.323" height="175.481" style="fill:rgb(80,83,84);"/>
    </g>
    <g transform="matrix(1,0,0,1,-113.338,-90.741)">
        <g transform="matrix(1,0,0,1,113.338,90.741)">
            <path d="M91.583,89.063C102.848,88.029 189.938,80.111 215.323,80.111C242.488,80.111 270.858,89.174 270.858,89.174L270.858,259.985C270.858,259.985 258.787,250.926 210.5,250.926C189.481,250.926 164.001,252.643 141.923,254.582C127.925,258.395 111.602,260.584 94.18,260.584C43.536,260.584 2.178,242.086 0.118,218.942L0,218.942L0,43.461L91.583,43.461L91.583,89.063Z" style="fill:url(#_Linear1);"/>
        </g>
    </g>
    <g transform="matrix(1,0,0,1,-113.338,-90.741)">
        <ellipse cx="207.518" cy="136.114" rx="87.965" ry="43.457" style="fill:rgb(89,96,107);"/>
    </g>
    <g transform="matrix(1,0,0,1,-113.338,-90.741)">
        <ellipse cx="207.518" cy="134.202" rx="94.143" ry="43.461" style="fill:url(#_Linear2);"/>
    </g>
    <g transform="matrix(1,0,0,1,-113.338,-90.741)">
        <ellipse cx="207.518" cy="134.202" rx="32.991" ry="15.229" style="fill:rgb(46,46,46);"/>
    </g>
    <defs>
        <linearGradient id="_Linear1" x1="0" y1="0" x2="1" y2="0" gradientUnits="userSpaceOnUse" gradientTransform="matrix(268.811,0.815117,-0.815117,268.811,0.739045,147.466)"><stop offset="0" style="stop-color:rgb(225,225,225);stop-opacity:1"/><stop offset="1" style="stop-color:rgb(142,142,142);stop-opacity:1"/></linearGradient>
        <linearGradient id="_Linear2" x1="0" y1="0" x2="1" y2="0" gradientUnits="userSpaceOnUse" gradientTransform="matrix(182.751,-0.978902,0.978902,182.751,116.615,133.957)"><stop offset="0" style="stop-color:rgb(224,224,224);stop-opacity:1"/><stop offset="1" style="stop-color:rgb(174,174,174);stop-opacity:1"/></linearGradient>
    </defs>
</svg>
